<svg width="25" height="25" viewBox="0 0 25 25" fill="none" xmlns="http://www.w3.org/2000/svg">
<path d="M23.3333 0C22.413 0 21.6667 0.745312 21.6667 1.66667V5.52552C19.5885 2.63125 16.2188 0.833333 12.5 0.833333C7.57812 0.833333 3.2599 3.97604 1.74896 8.65625C1.46573 9.53177 1.94672 10.4729 2.8224 10.7542C3.70208 11.0406 4.63906 10.5556 4.92135 9.68177C5.98437 6.38021 9.03125 4.16667 12.5 4.16667C15.1302 4.16667 17.5135 5.44531 18.9792 7.5H16.6667C15.7464 7.5 15 8.24531 15 9.16667C15 10.088 15.7464 10.8333 16.6667 10.8333H23.3333C24.2536 10.8333 25 10.088 25 9.16667V1.66667C25 0.745312 24.2552 0 23.3333 0ZM22.1771 14.25C21.2958 13.9668 20.3604 14.4485 20.0781 15.3224C19.0156 18.6198 15.9688 20.8333 12.5 20.8333C9.86979 20.8333 7.48698 19.5547 6.02083 17.5H8.33333C9.25365 17.5 10 16.7547 10 15.8333C10 14.912 9.25365 14.1667 8.33333 14.1667H1.66667C0.746354 14.1667 0 14.912 0 15.8333V23.3333C0 24.2547 0.746354 25 1.66667 25C2.58698 25 3.33333 24.2547 3.33333 23.3333V19.4745C5.41146 22.3698 8.78125 24.1667 12.4531 24.1667C17.3724 24.1667 21.6927 21.024 23.2031 16.3437C23.5365 15.4687 23.0521 14.4844 22.1771 14.25Z" fill="#666666"/>
</svg>
