<svg width="38" height="25" viewBox="0 0 38 25" fill="none" xmlns="http://www.w3.org/2000/svg">
<path fill-rule="evenodd" clip-rule="evenodd" d="M36.6785 14.4807C38.4249 13.2898 38.4249 10.7146 36.6785 9.52366L23.4864 0.527051C21.495 -0.831018 18.7961 0.595167 18.7961 3.00557L18.7961 10.5061C18.58 10.1296 18.2755 9.79158 17.8826 9.52366L4.69047 0.527049C2.69907 -0.83102 0.000211855 0.595166 0.000211644 3.00556L0.000210071 20.9988C0.00020986 23.4092 2.69907 24.8354 4.69047 23.4773L17.8826 14.4807C18.2755 14.2128 18.58 13.8748 18.7961 13.4982L18.7961 20.9988C18.7961 23.4092 21.495 24.8354 23.4864 23.4773L36.6785 14.4807Z" fill="white"/>
</svg>
