<svg width="30" height="30" viewBox="0 0 30 30" fill="none" xmlns="http://www.w3.org/2000/svg">
<path d="M26.25 18.75V7.5M15 15H3.75M20 7.5H3.75M15 22.5H3.75M23.125 22.5C23.9538 22.5 24.7487 22.1708 25.3347 21.5847C25.9208 20.9987 26.25 20.2038 26.25 19.375C26.25 18.5462 25.9208 17.7513 25.3347 17.1653C24.7487 16.5792 23.9538 16.25 23.125 16.25C22.2962 16.25 21.5013 16.5792 20.9153 17.1653C20.3292 17.7513 20 18.5462 20 19.375C20 20.2038 20.3292 20.9987 20.9153 21.5847C21.5013 22.1708 22.2962 22.5 23.125 22.5Z" stroke="white" stroke-opacity="0.5" stroke-width="2" stroke-linecap="round" stroke-linejoin="round"/>
</svg>
