<svg width="162" height="30" viewBox="0 0 162 30" fill="none" xmlns="http://www.w3.org/2000/svg">
<path d="M28.8848 21.0734C27.641 21.0734 26.5216 20.8254 25.5265 20.3292C24.5461 19.819 23.7779 19.1174 23.2218 18.2244C22.6657 17.3315 22.3877 16.3181 22.3877 15.1841C22.3877 14.0503 22.6657 13.0368 23.2218 12.1438C23.7779 11.2509 24.5461 10.5564 25.5265 10.0603C26.5216 9.55006 27.641 9.29492 28.8848 9.29492C30.1286 9.29492 31.2408 9.55006 32.2211 10.0603C33.2015 10.5564 33.9697 11.2509 34.5258 12.1438C35.0819 13.0368 35.3599 14.0503 35.3599 15.1841C35.3599 16.3181 35.0819 17.3315 34.5258 18.2244C33.9697 19.1174 33.2015 19.819 32.2211 20.3292C31.2408 20.8254 30.1286 21.0734 28.8848 21.0734ZM28.8848 18.352C29.7628 18.352 30.4798 18.0686 31.0359 17.5016C31.6066 16.9205 31.8919 16.148 31.8919 15.1841C31.8919 14.2204 31.6066 13.455 31.0359 12.888C30.4798 12.3069 29.7628 12.0163 28.8848 12.0163C28.0068 12.0163 27.2825 12.3069 26.7118 12.888C26.1411 13.455 25.8557 14.2204 25.8557 15.1841C25.8557 16.148 26.1411 16.9205 26.7118 17.5016C27.2825 18.0686 28.0068 18.352 28.8848 18.352Z" fill="white" fill-opacity="0.5"/>
<path d="M44.6284 9.29492C45.7259 9.29492 46.7208 9.54298 47.6137 10.0391C48.5209 10.521 49.2304 11.2084 49.7428 12.1013C50.2547 12.9801 50.5107 14.0078 50.5107 15.1842C50.5107 16.3606 50.2547 17.3952 49.7428 18.2882C49.2304 19.167 48.5209 19.8545 47.6137 20.3505C46.7208 20.8325 45.7259 21.0734 44.6284 21.0734C43.1211 21.0734 41.9358 20.6127 41.0726 19.6914V25.0279H37.6484V9.46503H40.9189V10.7832C41.7676 9.791 43.0042 9.29492 44.6284 9.29492ZM44.0358 18.352C44.9138 18.352 45.6307 18.0686 46.1868 17.5016C46.7574 16.9205 47.043 16.148 47.043 15.1842C47.043 14.2204 46.7574 13.455 46.1868 12.888C45.6307 12.3069 44.9138 12.0163 44.0358 12.0163C43.1578 12.0163 42.4335 12.3069 41.8627 12.888C41.3067 13.455 41.0287 14.2204 41.0287 15.1842C41.0287 16.148 41.3067 16.9205 41.8627 17.5016C42.4335 18.0686 43.1578 18.352 44.0358 18.352Z" fill="white" fill-opacity="0.5"/>
<path d="M59.9148 20.3501C59.5783 20.591 59.1613 20.7753 58.6637 20.9029C58.181 21.0163 57.676 21.0729 57.1493 21.0729C55.7301 21.0729 54.6396 20.7258 53.8787 20.0312C53.1178 19.3367 52.7373 18.3161 52.7373 16.9696V6.93457H56.1615V9.7197H59.0808V12.271H56.1615V16.9271C56.1615 17.4091 56.286 17.7846 56.5346 18.0539C56.7836 18.309 57.1419 18.4366 57.6103 18.4366C58.137 18.4366 58.6054 18.2949 59.015 18.0114L59.9148 20.3501Z" fill="white" fill-opacity="0.5"/>
<path d="M61.8497 9.46485H65.2739V20.9031H61.8497V9.46485ZM63.5618 7.87026C62.9323 7.87026 62.4204 7.69312 62.0251 7.33874C61.6303 6.98442 61.4326 6.54501 61.4326 6.02057C61.4326 5.49618 61.6303 5.05678 62.0251 4.7024C62.4204 4.34808 62.9323 4.1709 63.5618 4.1709C64.1908 4.1709 64.7032 4.34098 65.098 4.68116C65.4933 5.02134 65.6909 5.44654 65.6909 5.95682C65.6909 6.50957 65.4933 6.97026 65.098 7.33874C64.7032 7.69312 64.1908 7.87026 63.5618 7.87026Z" fill="white" fill-opacity="0.5"/>
<path d="M83.5746 9.29492C85.0525 9.29492 86.223 9.72012 87.0867 10.5706C87.9643 11.4068 88.4036 12.6683 88.4036 14.3549V20.9033H84.9793V14.8652C84.9793 13.9581 84.7817 13.2849 84.3869 12.8454C84.0064 12.392 83.4575 12.1651 82.7405 12.1651C81.9356 12.1651 81.2992 12.4202 80.8308 12.9305C80.3628 13.4266 80.1286 14.1707 80.1286 15.1629V20.9033H76.7044V14.8652C76.7044 13.0652 75.9583 12.1651 74.4655 12.1651C73.6754 12.1651 73.046 12.4202 72.578 12.9305C72.1096 13.4266 71.8754 14.1707 71.8754 15.1629V20.9033H68.4512V9.46503H71.7217V10.7832C72.161 10.3013 72.6951 9.93275 73.3241 9.67761C73.968 9.42247 74.6701 9.29492 75.4315 9.29492C76.2656 9.29492 77.0191 9.45795 77.6921 9.78392C78.3651 10.0957 78.9067 10.5564 79.3163 11.1658C79.7995 10.5706 80.4063 10.1099 81.1381 9.78392C81.8847 9.45795 82.6965 9.29492 83.5746 9.29492Z" fill="white" fill-opacity="0.5"/>
<path d="M97.5499 18.4158C98.1645 18.4158 98.7061 18.3307 99.174 18.1606C99.6568 17.9764 100.103 17.6929 100.513 17.3102L102.335 19.2237C101.223 20.4568 99.5985 21.0734 97.4619 21.0734C96.1303 21.0734 94.9523 20.8254 93.928 20.3292C92.9037 19.819 92.1136 19.1174 91.5577 18.2244C91.0018 17.3315 90.7236 16.3181 90.7236 15.1841C90.7236 14.0645 90.9944 13.058 91.5355 12.1651C92.0918 11.258 92.8454 10.5564 93.7965 10.0603C94.7621 9.55006 95.8451 9.29492 97.0449 9.29492C98.1719 9.29492 99.1962 9.52878 100.118 9.99655C101.04 10.4501 101.772 11.1163 102.313 11.995C102.869 12.8597 103.147 13.8872 103.147 15.0778L94.4112 16.7149C94.6598 17.282 95.0476 17.7072 95.5744 17.9906C96.1159 18.2741 96.7746 18.4158 97.5499 18.4158ZM97.0449 11.8037C96.1816 11.8037 95.4795 12.0731 94.9379 12.6116C94.3964 13.1502 94.1113 13.8943 94.0817 14.8439L99.8327 13.7597C99.6716 13.1644 99.3425 12.6896 98.8449 12.3352C98.3473 11.9809 97.7475 11.8037 97.0449 11.8037Z" fill="white" fill-opacity="0.5"/>
<path d="M117.477 5.12793V20.9034H114.206V19.5852C113.358 20.5775 112.129 21.0735 110.518 21.0735C109.407 21.0735 108.397 20.8326 107.49 20.3506C106.597 19.8687 105.895 19.1813 105.383 18.2883C104.871 17.3954 104.614 16.3607 104.614 15.1843C104.614 14.0079 104.871 12.9731 105.383 12.0801C105.895 11.1872 106.597 10.4998 107.49 10.0179C108.397 9.53601 109.407 9.29502 110.518 9.29502C112.026 9.29502 113.204 9.75566 114.052 10.6769V5.12793H117.477ZM111.111 18.3521C111.975 18.3521 112.692 18.0687 113.262 17.5017C113.833 16.9206 114.118 16.1481 114.118 15.1843C114.118 14.2205 113.833 13.4551 113.262 12.8881C112.692 12.307 111.975 12.0164 111.111 12.0164C110.233 12.0164 109.509 12.307 108.938 12.8881C108.368 13.4551 108.082 14.2205 108.082 15.1843C108.082 16.1481 108.368 16.9206 108.938 17.5017C109.509 18.0687 110.233 18.3521 111.111 18.3521Z" fill="white" fill-opacity="0.5"/>
<path d="M120.646 9.46485H124.069V20.9031H120.646V9.46485ZM122.358 7.87026C121.729 7.87026 121.216 7.69312 120.821 7.33874C120.426 6.98442 120.229 6.54501 120.229 6.02057C120.229 5.49618 120.426 5.05678 120.821 4.7024C121.216 4.34808 121.729 4.1709 122.358 4.1709C122.986 4.1709 123.499 4.34098 123.894 4.68116C124.289 5.02134 124.486 5.44654 124.486 5.95682C124.486 6.50957 124.289 6.97026 123.894 7.33874C123.499 7.69312 122.986 7.87026 122.358 7.87026Z" fill="white" fill-opacity="0.5"/>
<path d="M139.233 9.46503V20.9033H135.961V19.5851C135.113 20.5774 133.884 21.0734 132.275 21.0734C131.162 21.0734 130.152 20.8325 129.246 20.3505C128.352 19.8686 127.65 19.1811 127.138 18.2882C126.626 17.3952 126.37 16.3606 126.37 15.1841C126.37 14.0078 126.626 12.973 127.138 12.08C127.65 11.1871 128.352 10.4997 129.246 10.0178C130.152 9.53591 131.162 9.29492 132.275 9.29492C133.781 9.29492 134.959 9.75556 135.807 10.6768V9.46503H139.233ZM132.867 18.352C133.73 18.352 134.448 18.0686 135.019 17.5016C135.589 16.9205 135.874 16.148 135.874 15.1841C135.874 14.2204 135.589 13.455 135.019 12.888C134.448 12.3069 133.73 12.0163 132.867 12.0163C131.989 12.0163 131.264 12.3069 130.694 12.888C130.123 13.455 129.838 14.2204 129.838 15.1841C129.838 16.148 130.123 16.9205 130.694 17.5016C131.264 18.0686 131.989 18.352 132.867 18.352Z" fill="white" fill-opacity="0.5"/>
<path fill-rule="evenodd" clip-rule="evenodd" d="M156.408 0.361328L157.401 1.63423C160.299 5.35606 162 9.99097 162 14.9968C162 20.0025 160.299 24.6375 157.401 28.3593L156.408 29.6322L153.78 27.7114L154.772 26.4385C157.25 23.2565 158.708 19.2926 158.708 14.9968C158.708 10.7009 157.25 6.737 154.772 3.555L153.78 2.28211L156.408 0.361328ZM151.261 5.32292L152.249 6.59853C154.054 8.93037 155.139 11.8474 155.139 14.9966C155.139 18.1458 154.054 21.0627 152.249 23.3945L151.261 24.6702L148.627 22.7567L149.615 21.4811C151.01 19.6789 151.846 17.4283 151.846 14.9966C151.846 12.5649 151.01 10.3142 149.615 8.51202L148.627 7.23636L151.261 5.32292ZM145.745 8.7575L146.733 10.0332C147.8 11.411 148.442 13.1355 148.442 14.9968C148.442 16.8581 147.8 18.5825 146.733 19.9603L145.745 21.236L143.111 19.3225L144.099 18.0469C144.755 17.1987 145.149 16.1406 145.149 14.9968C145.149 13.853 144.755 12.7948 144.099 11.9466L143.111 10.6709L145.745 8.7575Z" fill="white" fill-opacity="0.5"/>
<path fill-rule="evenodd" clip-rule="evenodd" d="M5.59159 0.0078125L4.60006 1.28071C1.701 5.00252 0 9.63748 0 14.6432C0 19.6489 1.701 24.2839 4.60006 28.0057L5.59159 29.2786L8.21983 27.3579L7.22835 26.0849C4.74975 22.9029 3.29244 18.9391 3.29244 14.6432C3.29244 10.3474 4.74975 6.38351 7.22835 3.20149L8.21983 1.9286L5.59159 0.0078125ZM10.7394 4.96938L9.75161 6.24504C7.94605 8.57688 6.86158 11.4939 6.86158 14.6431C6.86158 17.7922 7.94605 20.7092 9.75161 23.0411L10.7394 24.3168L13.3733 22.4033L12.3856 21.1277C10.9902 19.3255 10.154 17.0748 10.154 14.6431C10.154 12.2113 10.9902 9.96068 12.3856 8.15848L13.3733 6.88287L10.7394 4.96938ZM16.2549 8.40401L15.2672 9.67967C14.2003 11.0575 13.559 12.7819 13.559 14.6432C13.559 16.5045 14.2003 18.229 15.2672 19.6068L16.2549 20.8824L18.8888 18.969L17.9011 17.6934C17.2443 16.8452 16.8515 15.7871 16.8515 14.6432C16.8515 13.4994 17.2443 12.4414 17.9011 11.5931L18.8888 10.3174L16.2549 8.40401Z" fill="white" fill-opacity="0.5"/>
</svg>
