<svg width="70" height="71" viewBox="0 0 70 71" fill="none" xmlns="http://www.w3.org/2000/svg">
<path d="M67.0736 30.2594L7.53825 0.491749C6.73509 0.119636 5.85161 -0.045687 4.96823 0.0108303C4.08486 0.0673476 3.22965 0.34391 2.48046 0.815342C1.73126 1.28677 1.11188 1.9381 0.678682 2.71004C0.245487 3.48197 0.0122424 4.35 0.00018002 5.23509V64.7448C-0.00732055 65.6534 0.219681 66.5485 0.659245 67.3437C1.09881 68.1389 1.73607 68.8072 2.50943 69.2841C3.28279 69.761 4.16611 70.0304 5.07399 70.0661C5.98187 70.1019 6.88363 69.9028 7.69209 69.4882L67.0736 39.7205C67.9532 39.2789 68.6928 38.6015 69.2095 37.7638C69.7263 36.9262 70 35.9614 70 34.9771C70 33.9929 69.7263 33.0281 69.2095 32.1904C68.6928 31.3528 67.9532 30.6753 67.0736 30.2338V30.2594Z" fill="white"/>
</svg>
