<svg width="29" height="29" viewBox="0 0 29 29" fill="none" xmlns="http://www.w3.org/2000/svg">
<path d="M2 23.25H6.885C7.30361 23.2499 7.71547 23.1446 8.08282 22.9439C8.45017 22.7432 8.76124 22.4534 8.9875 22.1012L13.875 14.5L18.7625 6.8975C18.9888 6.54572 19.2997 6.25634 19.6668 6.05586C20.0339 5.85538 20.4455 5.75022 20.8637 5.75H27M27 23.25H20.865C20.4464 23.2499 20.0345 23.1446 19.6672 22.9439C19.2998 22.7432 18.9888 22.4534 18.7625 22.1012L16.285 18.25M2 5.75H6.885C7.30349 5.75001 7.71528 5.85507 8.08262 6.05556C8.44996 6.25605 8.7611 6.54554 8.9875 6.8975L11.4638 10.75" stroke="#666666" stroke-width="3" stroke-linecap="round" stroke-linejoin="round"/>
<path d="M23.25 2L27 5.75L23.25 9.5M23.25 19.5L27 23.25L23.25 27" stroke="#666666" stroke-width="3" stroke-linecap="round" stroke-linejoin="round"/>
</svg>
